# xmcd
#
# Track frame offsets:
#	150
#	48249
#	95072
#	136111
#
# Disc length: 2175 seconds
#
# Revision: 0
# Processed by: cddbd v1.5.1PL2 Copyright (c) Steve Scherf et al.
# Submitted via: EasyCDDAExtractor 10.0.1.1
#
DISCID=2d087d04
DTITLE=Grateful Dead - Red Rocks 8-30-78 - Disc 2
DYEAR=1978
DGENRE=Classic Rock
TTITLE0=If I Had The World To Give
TTITLE1=Iko Iko
TTITLE2=Around and Around
TTITLE3=U. S. Blues
EXTD=
EXTT0=
EXTT1=
EXTT2=
EXTT3=
PLAYORDER=
